# AST/ASF file generated using VICON BodyLanguage
# -----------------------------------------------
:version 1.10
:name VICON
:units
  mass 1.0
  length 0.45
  angle deg
:documentation
   .ast/.asf automatically generated from VICON data using
   VICON BodyBuilder and BodyLanguage model FoxedUp or BRILLIANT.MOD
:root
   order TX TY TZ RX RY RZ
   axis XYZ
   position 0 0 0  
   orientation 0 -0 0 
:bonedata
  begin
     id 1 
     name lhipjoint
     direction 0.515797 -0.759363 0.396637 
     length 2.47888 
     axis 0 -0 0  XYZ
  end
  begin
     id 2 
     name lfemur
     direction 0.34202 -0.939693 0  
     length 6.81885  
     axis 0 -0 20  XYZ
    dof rx ry rz
    limits (-160.0 20.0)
           (-70.0 70.0)
           (-60.0 70.0)
  end
  begin
     id 3 
     name ltibia
     direction 0.342037 -0.939687 0   
     length 7.89258   
     axis 0 -0 20   XYZ
    dof rx
    limits (-10.0 170.0)
  end
  begin
     id 4 
     name lfoot
     direction 0.173497 -0.476678 0.861787   
     length 2.51543   
     axis -90 -1.13533e-015 20   XYZ
    dof rx rz
    limits (-45.0 90.0)
           (-70.0 20.0)
  end
  begin
     id 5 
     name ltoes
     direction 1.53564e-011 -4.21897e-011 1   
     length 1.21388   
     axis -90 -1.13533e-015 20   XYZ
    dof rx
    limits (-90.0 20.0)
  end
  begin
     id 6 
     name rhipjoint
     direction -0.489454 -0.772941 0.403729   
     length 2.43534  
     axis 0 -0 0  XYZ 
  end
  begin
     id 7 
     name rfemur
     direction -0.34202 -0.939693 0   
     length 7.10357   
     axis 0 -0 -20   XYZ
    dof rx ry rz
    limits (-160.0 20.0)
           (-70.0 70.0)
           (-70.0 60.0)
  end
  begin
     id 8 
     name rtibia
     direction -0.34202 -0.939693 0   
     length 9.16127   
     axis 0 -0 -20   XYZ
    dof rx
    limits (-10.0 170.0)
 end
 begin
     id 9 
     name rfoot
     direction -0.270974 -0.748671 0.605033   
     length 1.74894  
     axis -90 1.13533e-015 -20   XYZ
    dof rx rz
    limits (-45.0 90.0)
           (-20.0 70.0)
  end
  begin
     id 10 
     name rtoes
     direction -1.53557e-011 -4.21759e-011 1   
     length 0.787585   
     axis -90 1.13533e-015 -20   XYZ
    dof rx
    limits (-90.0 20.0)
  end
  begin
     id 11 
     name lowerback
     direction -0.0140249 0.999561 0.0260968   
     length 2.16963   
     axis 0 -0 0   XYZ
    dof rx ry rz
    limits (-20.0 45.0)
           (-30.0 30.0)
           (-30.0 30.0)
  end
  begin
     id 12 
     name upperback
     direction 0.00860018 0.999959 -0.002711   
     length 2.1726   
     axis 0 -0 0   XYZ
    dof rx ry rz
    limits (-20.0 45.0)
           (-30.0 30.0)
           (-30.0 30.0)
  end
  begin
     id 13 
     name thorax
     direction 0.015211 0.999782 -0.0143191   
     length 2.17061   
     axis 0 -0 0   XYZ
    dof rx ry rz
    limits (-20.0 45.0)
           (-30.0 30.0)
           (-30.0 30.0)
  end
  begin
     id 14 
     name lowerneck
     direction -0.0140143 0.999447 0.030145   
     length 2.26749   
     axis 0 -0 0   XYZ
    dof rx ry rz
    limits (-20.0 45.0)
           (-30.0 30.0)
           (-30.0 30.0)
  end
  begin
     id 15 
     name upperneck
     direction 0.118062 0.961438 -0.248392   
     length 2.22728   
     axis 0 -0 0   XYZ
    dof rx ry rz
    limits (-20.0 45.0)
           (-30.0 30.0)
           (-30.0 30.0)
  end
  begin
     id 16
     name head
     direction 0.0431885 0.9954 -0.085514  
     length 2.28786  
     axis 0 -0 0   XYZ
    dof rx ry rz
    limits (-20.0 45.0)
           (-30.0 30.0)
           (-30.0 30.0)
  end
  begin
     id 17 
     name lclavicle
     direction 0.912126 0.409548 0.0172323  
     length 4.31571  
     axis 0 -0 0   XYZ
    dof ry rz
    limits (-20.0 10.0)
           (0.0 20.0)
  end
  begin
     id 18 
     name lhumerus
     direction 1 -4.48977e-011 1.93091e-027   
     length 5.13658   
     axis 180 -30 -90   XYZ
    dof rx ry rz
    limits (-60.0 90.0)
           (-90.0 90.0)
           (-90.0 90.0)
  end
  begin
     id 19
     name lradius
     direction 1 -4.48916e-011 6.84018e-027   
     length 3.22473   
     axis 180 -30 -90   XYZ
    dof rx
    limits (-10.0 170.0)
  end
  begin
     id 20
     name lwrist
     direction 1 -4.48987e-011 7.01981e-027   
     length 1.61236   
     axis -4.37994e-015 90 90   XYZ
    dof ry
    limits (-180.0 0.0)
 end
  begin
     id 21 
     name lhand
     direction 1 -4.49037e-011 1.40335e-026   
     length 0.936406   
     axis -8.96029e-015 90 90   XYZ
    dof rx rz
    limits (-90.0 90.0)
           (-45.0 45.0)
  end
  begin
     id 22 
     name lfingers
     direction 1 -4.48886e-011 2.8104e-026   
     length 0.754955   
     axis -1.79203e-014 90 90   XYZ
    dof rx
    limits (0.0 90.0)
  end
  begin
     id 23
     name lthumb
     direction 0.707107 -6.34937e-011 0.707107   
     length 1.08397   
     axis -90 45 -4.48555e-014   XYZ
    dof rx rz
    limits (-45.0 45.0)
           (-45.0 45.0)
  end
  begin
     id 24 
     name rclavicle
     direction -0.947962 0.317997 0.0156638   
     length 4.86918  
     axis 0 -0 0   XYZ 
    dof ry rz
    limits (-10.0 20.0)
           (-20.0 0.0)
  end
  begin
     id 25 
     name rhumerus
     direction -1 -4.48951e-011 2.80534e-018  
     length 5.60911   
     axis 180 30 90   XYZ
    dof rx ry rz
    limits (-90.0 60.0)
           (-90.0 90.0)
           (-90.0 90.0)
  end
  begin
     id 26 
     name rradius
     direction -1 -4.4898e-011 2.11315e-027   
     length 3.38704   
     axis 180 30 90   XYZ
    dof rx
    limits (-10.0 170.0)
  end
  begin
     id 27 
     name rwrist
     direction -1 -4.48933e-011 7.02314e-027   
     length 1.69352   
     axis -4.37994e-015 -90 -90   XYZ
    dof ry
    limits (-180.0 0.0)
  end
  begin
     id 28
     name rhand
     direction -1 -4.48937e-011 1.40458e-026   
     length 0.755878   
     axis -8.96029e-015 -90 -90   XYZ
    dof rx rz
    limits (-90.0 90.0)
           (-45.0 45.0)
  end
  begin
     id 29
     name rfingers
     direction -1 -4.4901e-011 2.80737e-026   
     length 0.609409   
     axis -1.79203e-014 -90 -90   XYZ
    dof rx
    limits (0.0 90.0)
  end
  begin
     id 30
     name rthumb
     direction -0.707107 -6.34968e-011 0.707107   
     length 0.874992   
     axis -90 -45 4.48555e-014   XYZ
    dof rx rz
    limits (-45.0 45.0)
           (-45.0 45.0)
  end
:hierarchy
  begin
    root lhipjoint rhipjoint lowerback
    lhipjoint lfemur
    lfemur ltibia
    ltibia lfoot
    lfoot ltoes
    rhipjoint rfemur
    rfemur rtibia
    rtibia rfoot
    rfoot rtoes
    lowerback upperback
    upperback thorax
    thorax lowerneck lclavicle rclavicle
    lowerneck upperneck
    upperneck head
    lclavicle lhumerus
    lhumerus lradius
    lradius lwrist
    lwrist lhand lthumb
    lhand lfingers
    rclavicle rhumerus
    rhumerus rradius
    rradius rwrist
    rwrist rhand rthumb
    rhand rfingers
  end

#!OML:ASF C:\ViconDB\ViconDB\414\Spring2016\041811\Spring2016.ASF
:FULLY-SPECIFIED
:DEGREES
16
root 9.87233 17.9399 9.85378 -172.312 -6.105 -178.405
lowerback 14.6393 0.672976 0.425986
upperback 3.4235 0.582226 0.48463
thorax -4.58181 0.115216 0.175366
lowerneck -11.4035 -4.39863 -12.183
upperneck 15.1747 -7.62684 17.4949
head 7.68077 -3.21935 7.086
rclavicle -1.27098e-014 -7.35503e-015
rhumerus -43.2865 -12.8604 -80.239
rradius 40.5558
rwrist 31.768
rhand -34.7092 -15.682
rfingers 7.12502
rthumb -7.86411 -45.5158
lclavicle -1.27098e-014 -7.35503e-015
lhumerus -38.6873 -1.48124 82.2811
lradius 22.3715
lwrist -28.7318
lhand -30.9947 15.5493
lfingers 7.12502
lthumb -4.27801 45.4861
rfemur -17.5117 -12.1896 23.8687
rtibia 28.8088
rfoot -7.54204 -2.29144
rtoes -10.2044
lfemur -25.0184 3.48917 -12.8427
ltibia 37.8361
lfoot -21.1522 2.51019
ltoes -8.49728
17
root 9.8774 17.9013 9.90571 -171.834 -6.0893 -178.486
lowerback 15.415 0.71979 0.347214
upperback 3.59843 0.592822 0.465353
thorax -4.81838 0.103172 0.195386
lowerneck -11.5252 -4.50042 -12.2196
upperneck 14.5631 -7.65436 17.6677
head 7.52303 -3.21235 7.13264
rclavicle -6.8705e-015 1.68967e-014
rhumerus -43.9397 -12.7884 -79.9172
rradius 40.5514
rwrist 31.3655
rhand -34.5059 -15.4424
rfingers 7.12502
rthumb -7.66791 -45.2834
lclavicle -6.8705e-015 1.68967e-014
lhumerus -39.0732 -1.53935 81.8466
lradius 22.3085
lwrist -28.7808
lhand -30.7337 15.3808
lfingers 7.12502
lthumb -4.02595 45.3225
rfemur -19.198 -12.1863 23.9396
rtibia 30.4506
rfoot -7.33154 -2.47691
rtoes -9.54328
lfemur -26.4079 3.97056 -12.9958
ltibia 38.9522
lfoot -21.2274 2.09279
ltoes -8.55749
18
root 9.88312 17.8605 9.95324 -171.345 -6.30577 -178.461
lowerback 16.2702 0.656305 0.4437
upperback 3.70315 0.494052 0.492458
thorax -5.16844 0.037602 0.186768
lowerneck -11.5928 -4.61191 -12.2324
upperneck 13.9913 -7.68705 17.7207
head 7.36346 -3.21734 7.13359
rclavicle 2.63762e-014 -9.16894e-015
rhumerus -44.7609 -12.7524 -79.5097
rradius 40.5233
rwrist 31.1774
rhand -34.1918 -15.1708
rfingers 7.12502
rthumb -7.36473 -45.0226
lclavicle 2.63762e-014 -9.16894e-015
lhumerus -39.5664 -1.47715 81.344
lradius 22.0706
lwrist -29.0317
lhand -30.585 15.4211
lfingers 7.12502
lthumb -3.88234 45.3655
rfemur -20.8691 -12.3175 24.1627
rtibia 32.0695
rfoot -7.03468 -2.813
rtoes -9.8142
lfemur -27.8576 4.16257 -12.9988
ltibia 40.0721
lfoot -21.3204 1.73707
ltoes -8.63564
19
root 9.89138 17.8127 10.0071 -170.833 -6.43445 -178.517
lowerback 17.1848 0.628817 0.427912
upperback 3.82587 0.416987 0.470345
thorax -5.53016 -0.0182147 0.187608
lowerneck -11.7489 -4.69019 -12.2194
upperneck 13.3949 -7.68394 17.8455
head 7.20956 -3.19797 7.1586
rclavicle -2.23633e-014 -5.96354e-015
rhumerus -45.5361 -12.6659 -79.2135
rradius 40.4948
rwrist 30.8545
rhand -34.0028 -15.1597
rfingers 7.12502
rthumb -7.18228 -45.0178
lclavicle -2.23633e-014 -5.96354e-015
lhumerus -40.0591 -1.51239 80.7816
lradius 21.8542
lwrist -29.2157
lhand -30.716 15.36
lfingers 7.12502
lthumb -4.00891 45.302
rfemur -22.6168 -12.3716 24.3014
rtibia 33.7237
rfoot -6.76146 -3.07487
rtoes -9.5308
lfemur -29.3527 4.40123 -13.1063
ltibia 41.2171
lfoot -21.4238 1.40439
ltoes -8.62902
20
root 9.88926 17.7661 10.056 -170.265 -6.43144 -178.545
lowerback 17.9774 0.617757 0.535479
upperback 3.93686 0.38473 0.423785
thorax -5.8352 -0.0523787 0.0841919
lowerneck -11.7816 -4.79462 -12.2134
upperneck 12.6723 -7.708 17.965
head 6.99899 -3.20158 7.17801
rclavicle 2.57178e-015 5.71506e-015
rhumerus -46.3374 -12.7143 -78.8421
rradius 40.3365
rwrist 30.8107
rhand -34.0404 -15.447
rfingers 7.12502
rthumb -7.21855 -45.3039
lclavicle 2.57178e-015 5.71506e-015
lhumerus -40.6766 -1.19713 80.1181
lradius 21.6516
lwrist -29.7657
lhand -30.6778 15.5806
lfingers 7.12502
lthumb -3.97203 45.5233
rfemur -24.3846 -12.4522 24.4359
rtibia 35.3569
rfoot -6.58845 -3.45074
rtoes -9.52783
lfemur -30.8599 4.73724 -13.2488
ltibia 42.3988
lfoot -21.615 1.11242
ltoes -8.70594
21
root 9.88737 17.7147 10.1042 -169.665 -6.32039 -178.648
lowerback 18.7659 0.645798 0.511325
upperback 4.06089 0.374468 0.347678
thorax -6.12323 -0.0754149 0.0194319
lowerneck -11.8801 -4.88669 -12.2613
upperneck 11.9389 -7.70298 18.1164
head 6.79712 -3.19054 7.22153
rclavicle 2.70844e-015 3.42904e-015
rhumerus -47.1197 -12.7053 -78.4695
rradius 40.209
rwrist 30.8317
rhand -33.6775 -15.3851
rfingers 7.12502
rthumb -6.86829 -45.2537
lclavicle 2.70844e-015 3.42904e-015
lhumerus -41.1978 -1.3437 79.6022
lradius 21.3589
lwrist -29.6764
lhand -30.6216 15.6903
lfingers 7.12502
lthumb -3.91778 45.634
rfemur -26.2233 -12.3829 24.4812
rtibia 37.0489
rfoot -6.34976 -3.79667
rtoes -9.35479
lfemur -32.4075 5.14964 -13.4995
ltibia 43.6333
lfoot -21.8188 0.853895
ltoes -8.8187
22
root 9.89277 17.6592 10.155 -168.92 -6.34212 -178.663
lowerback 19.406 0.66933 0.465306
upperback 4.15841 0.369101 0.404264
thorax -6.35999 -0.0918607 0.107965
lowerneck -12.019 -4.99194 -12.3309
upperneck 11.2545 -7.70101 18.1941
head 6.61678 -3.18361 7.24417
rclavicle -9.41742e-015 -3.97569e-016
rhumerus -47.8736 -12.5131 -78.0634
rradius 39.9919
rwrist 31.0324
rhand -33.6834 -15.4088
rfingers 7.12502
rthumb -6.87395 -45.2772
lclavicle -9.41742e-015 -3.97569e-016
lhumerus -41.6978 -0.89866 78.9283
lradius 21.086
lwrist -29.7361
lhand -30.3555 15.8091
lfingers 7.12502
lthumb -3.6608 45.7574
rfemur -28.2583 -12.3146 24.6959
rtibia 38.7627
rfoot -6.09372 -4.0092
rtoes -9.06467
lfemur -34.2136 5.51976 -13.6418
ltibia 44.9172
lfoot -21.9528 0.549951
ltoes -9.06036
23
root 9.90097 17.5956 10.2217 -168.222 -6.60353 -178.686
lowerback 20.4069 0.572368 0.644991
upperback 4.15845 0.249669 0.327355
thorax -6.88936 -0.167077 -0.0458587
lowerneck -12.124 -5.09898 -12.1481
upperneck 10.6059 -7.7655 18.231
head 6.44166 -3.20785 7.20152
rclavicle 2.6339e-015 6.01324e-015
rhumerus -48.7845 -12.6999 -77.7428
rradius 39.7994
rwrist 31.1658
rhand -33.4113 -15.3215
rfingers 7.12502
rthumb -6.61132 -45.1983
lclavicle 2.6339e-015 6.01324e-015
lhumerus -42.3537 -0.713342 77.9864
lradius 20.7084
lwrist -30.7376
lhand -30.407 15.7837
lfingers 7.12502
lthumb -3.71046 45.7312
rfemur -30.3163 -12.4019 24.9576
rtibia 40.5002
rfoot -5.80002 -4.15916
rtoes -8.61262
lfemur -36.1301 5.56833 -13.734
ltibia 46.2624
lfoot -22.0275 0.33303
ltoes -9.18703
24
root 9.90355 17.5296 10.2722 -167.527 -6.55481 -178.849
lowerback 21.1896 0.609159 0.57691
upperback 4.26282 0.23752 0.210748
thorax -7.18979 -0.190059 -0.127869
lowerneck -12.2504 -5.1724 -12.0881
upperneck 9.81483 -7.77353 18.4486
head 6.23159 -3.20603 7.24762
rclavicle -1.83876e-015 5.56597e-015
rhumerus -49.5148 -12.6507 -77.6093
rradius 39.8263
rwrist 29.7164
rhand -32.8476 -15.0441
rfingers 7.12502
rthumb -6.06713 -44.9372
lclavicle -1.83876e-015 5.56597e-015
lhumerus -42.863 -0.631151 77.2348
lradius 20.3219
lwrist -31.0573
lhand -30.4301 16.0052
lfingers 7.12502
lthumb -3.73285 45.9523
rfemur -32.3228 -12.4299 24.9951
rtibia 42.261
rfoot -5.59936 -4.45052
rtoes -8.42515
lfemur -37.9232 6.01238 -14.086
ltibia 47.6466
lfoot -22.2207 -0.013287
ltoes -9.31573
25
root 9.90397 17.462 10.3117 -166.754 -6.47371 -178.73
lowerback 21.7446 0.600456 0.670239
upperback 4.34554 0.223363 0.283353
thorax -7.39134 -0.212112 -0.0970782
lowerneck -12.4059 -5.28225 -12.2727
upperneck 9.11303 -7.76453 18.5468
head 6.05564 -3.20426 7.30015
rclavicle 2.06239e-015 2.38542e-015
rhumerus -50.2273 -12.3628 -77.3092
rradius 39.704
rwrist 29.2024
rhand -32.5882 -14.827
rfingers 7.12502
rthumb -5.81661 -44.7272
lclavicle 2.06239e-015 2.38542e-015
lhumerus -43.5346 -0.331222 76.6925
lradius 20.0234
lwrist -31.1401
lhand -30.3965 16.3848
lfingers 7.12502
lthumb -3.70034 46.3324
rfemur -34.3961 -12.4074 25.3582
rtibia 43.9974
rfoot -5.34889 -4.83539
rtoes -8.32476
lfemur -39.7896 6.338 -14.1052
ltibia 49.079
lfoot -22.5539 -0.176404
ltoes -9.47081
26
root 9.90593 17.3863 10.3595 -165.981 -6.58053 -178.852
lowerback 22.4893 0.540356 0.639683
upperback 4.4003 0.109389 0.283125
thorax -7.72328 -0.28055 -0.045173
lowerneck -12.6382 -5.37884 -12.3819
upperneck 8.47226 -7.76297 18.6534
head 5.91128 -3.20134 7.3421
rclavicle -6.73383e-015 1.39149e-015
rhumerus -50.934 -12.16 -77.0758
rradius 39.5236
rwrist 28.9136
rhand -32.4765 -14.7272
rfingers 7.12502
rthumb -5.70883 -44.6303
lclavicle -6.73383e-015 1.39149e-015
lhumerus -44.2047 0.0496754 75.9973
lradius 19.659
lwrist -31.5726
lhand -30.4021 16.4305
lfingers 7.12502
lthumb -3.70573 46.378
rfemur -36.4846 -12.5396 25.4975
rtibia 45.7439
rfoot -5.0652 -5.16073
rtoes -8.12046
lfemur -41.7222 6.54816 -14.3901
ltibia 50.5372
lfoot -22.7769 -0.492852
ltoes -9.50674
27
root 9.90888 17.306 10.4033 -165.185 -6.60542 -178.881
lowerback 23.1262 0.511474 0.747775
upperback 4.46916 0.0588893 0.164888
thorax -7.98001 -0.321763 -0.21846
lowerneck -12.8174 -5.4644 -12.2227
upperneck 7.70738 -7.81385 18.8339
head 5.72275 -3.22608 7.35465
rclavicle -6.31141e-015 1.27222e-014
rhumerus -51.6891 -12.1382 -77.1094
rradius 39.3854
rwrist 28.7949
rhand -32.3524 -14.7108
rfingers 7.12502
rthumb -5.58895 -44.6171
lclavicle -6.31141e-015 1.27222e-014
lhumerus -44.652 0.797304 74.827
lradius 19.063
lwrist -32.8363
lhand -30.3823 16.3823
lfingers 7.12502
lthumb -3.6866 46.3302
rfemur -38.5961 -12.6155 25.7444
rtibia 47.476
rfoot -4.7909 -5.50865
rtoes -8.14242
lfemur -43.6788 6.85122 -14.5807
ltibia 52.0364
lfoot -23.0825 -0.778399
ltoes -9.64508
28
root 9.90768 17.2261 10.4399 -164.404 -6.537 -178.885
lowerback 23.7235 0.503562 0.724172
upperback 4.50573 0.0226862 0.197127
thorax -8.25147 -0.349914 -0.155752
lowerneck -12.9425 -5.53855 -12.428
upperneck 7.01456 -7.78195 18.9941
head 5.54642 -3.21987 7.4371
rclavicle 1.33683e-014 1.09332e-015
rhumerus -52.4179 -11.7056 -77.0254
rradius 39.2284
rwrist 28.6121
rhand -32.3746 -14.5837
rfingers 7.12502
rthumb -5.61043 -44.4895
lclavicle 1.33683e-014 1.09332e-015
lhumerus -45.4072 0.315124 74.7122
lradius 18.8782
lwrist -32.144
lhand -30.124 16.5636
lfingers 7.12502
lthumb -3.43721 46.5157
rfemur -40.6523 -12.7344 25.9988
rtibia 49.186
rfoot -4.63896 -5.98656
rtoes -8.32458
lfemur -45.5694 7.14092 -14.7521
ltibia 53.5407
lfoot -23.4148 -1.01228
ltoes -9.60864
